<svg width="24" height="22" viewBox="0 0 24 22" fill="none" xmlns="http://www.w3.org/2000/svg">
<path d="M23.0529 15.3877H7.12161L7.92152 13.8023L21.2123 13.7789C21.6618 13.7789 22.047 13.4665 22.1273 13.0344L23.9679 3.00948C24.016 2.74656 23.9438 2.47583 23.7672 2.27017C23.68 2.16896 23.5711 2.08743 23.4482 2.03125C23.3254 1.97506 23.1914 1.94555 23.0556 1.94477L6.14781 1.89011L6.00334 1.2289C5.91238 0.807177 5.52179 0.5 5.07769 0.5H0.944376C0.693912 0.5 0.453706 0.596815 0.276601 0.769148C0.0994965 0.941481 0 1.17521 0 1.41893C0 1.66264 0.0994965 1.89638 0.276601 2.06871C0.453706 2.24104 0.693912 2.33786 0.944376 2.33786H4.31256L4.94393 5.25865L6.49827 12.5814L4.49716 15.7599C4.39324 15.8964 4.33064 16.0585 4.31646 16.2278C4.30228 16.3971 4.33707 16.5669 4.4169 16.7179C4.57742 17.0277 4.90113 17.2229 5.25961 17.2229H6.93969C6.58152 17.6858 6.38806 18.2497 6.38859 18.8291C6.38859 20.3025 7.61922 21.5 9.13343 21.5C10.6476 21.5 11.8783 20.3025 11.8783 18.8291C11.8783 18.2486 11.6803 17.6837 11.3272 17.2229H15.6371C15.2789 17.6858 15.0854 18.2497 15.0859 18.8291C15.0859 20.3025 16.3166 21.5 17.8308 21.5C19.345 21.5 20.5756 20.3025 20.5756 18.8291C20.5756 18.2486 20.3777 17.6837 20.0245 17.2229H23.0556C23.5746 17.2229 24 16.8116 24 16.304C23.9984 16.0606 23.898 15.8276 23.7206 15.6559C23.5431 15.4842 23.3032 15.3878 23.0529 15.3877ZM6.54108 3.70193L21.9454 3.75139L20.4365 11.9723L8.33619 11.9931L6.54108 3.70193ZM9.13343 19.6517C8.66793 19.6517 8.28804 19.2821 8.28804 18.8291C8.28804 18.3762 8.66793 18.0065 9.13343 18.0065C9.59893 18.0065 9.97882 18.3762 9.97882 18.8291C9.97882 19.0473 9.88975 19.2565 9.73121 19.4108C9.57267 19.5651 9.35764 19.6517 9.13343 19.6517ZM17.8308 19.6517C17.3653 19.6517 16.9854 19.2821 16.9854 18.8291C16.9854 18.3762 17.3653 18.0065 17.8308 18.0065C18.2963 18.0065 18.6762 18.3762 18.6762 18.8291C18.6762 19.0473 18.5871 19.2565 18.4286 19.4108C18.27 19.5651 18.055 19.6517 17.8308 19.6517Z" fill="#004832"/>
</svg>
